<svg xmlns="http://www.w3.org/2000/svg" viewBox="0 0 64 64" fill="#000000">
  <!-- Classic car silhouette representing restoration -->
  <path d="M8 38 L12 38 L14 32 L22 28 L42 28 L50 32 L52 38 L56 38 L56 44 L52 44 L52 46 L44 46 L44 44 L20 44 L20 46 L12 46 L12 44 L8 44 Z" fill="none" stroke="#000000" stroke-width="2.5"/>
  <!-- Wheels -->
  <circle cx="16" cy="44" r="6" fill="none" stroke="#000000" stroke-width="2.5"/>
  <circle cx="16" cy="44" r="2"/>
  <circle cx="48" cy="44" r="6" fill="none" stroke="#000000" stroke-width="2.5"/>
  <circle cx="48" cy="44" r="2"/>
  <!-- Windows -->
  <path d="M24 28 L22 32 L28 32 L28 28 Z"/>
  <path d="M30 28 L30 32 L42 32 L40 28 Z"/>
  <!-- Wrench overlay -->
  <path d="M48 12 L56 20 L54 22 L58 26 L56 28 L52 24 L50 26 L42 18 L44 16 L42 14 L44 12 L46 14 Z" fill="#000000"/>
</svg>
