<svg xmlns="http://www.w3.org/2000/svg" viewBox="0 0 64 64" fill="#000000">
  <!-- Scale/balance representing loan comparison -->
  <!-- Balance beam -->
  <rect x="8" y="20" width="48" height="4" rx="1"/>
  <!-- Center post -->
  <rect x="30" y="8" width="4" height="16"/>
  <polygon points="26,8 38,8 32,2"/>
  <rect x="28" y="24" width="8" height="32"/>
  <rect x="24" y="56" width="16" height="4" rx="1"/>
  <!-- Left pan -->
  <path d="M8 22 L8 32 Q8 36 12 36 L24 36 Q28 36 28 32 L28 22" fill="none" stroke="#000000" stroke-width="2"/>
  <!-- Right pan -->
  <path d="M36 22 L36 28 Q36 32 40 32 L52 32 Q56 32 56 28 L56 22" fill="none" stroke="#000000" stroke-width="2"/>
  <!-- Dollar signs -->
  <text x="18" y="32" font-family="Arial" font-size="10" font-weight="bold" text-anchor="middle">$</text>
  <text x="46" y="28" font-family="Arial" font-size="10" font-weight="bold" text-anchor="middle">$</text>
</svg>
