<svg xmlns="http://www.w3.org/2000/svg" viewBox="0 0 64 64" fill="#000000">
  <!-- Book with glasses representing professional reading -->
  <!-- Book -->
  <path d="M8 14 Q16 10 32 14 Q48 10 56 14 L56 54 Q48 50 32 54 Q16 50 8 54 Z" fill="none" stroke="#000000" stroke-width="3"/>
  <path d="M32 14 L32 54" stroke="#000000" stroke-width="2"/>
  <!-- Page lines -->
  <line x1="14" y1="26" x2="26" y2="24" stroke="#000000" stroke-width="1.5"/>
  <line x1="14" y1="34" x2="26" y2="32" stroke="#000000" stroke-width="1.5"/>
  <line x1="14" y1="42" x2="26" y2="40" stroke="#000000" stroke-width="1.5"/>
  <line x1="38" y1="24" x2="50" y2="26" stroke="#000000" stroke-width="1.5"/>
  <line x1="38" y1="32" x2="50" y2="34" stroke="#000000" stroke-width="1.5"/>
  <!-- Glasses on book -->
  <circle cx="22" cy="6" r="6" fill="none" stroke="#000000" stroke-width="2"/>
  <circle cx="42" cy="6" r="6" fill="none" stroke="#000000" stroke-width="2"/>
  <line x1="28" y1="6" x2="36" y2="6" stroke="#000000" stroke-width="2"/>
  <line x1="16" y1="6" x2="12" y2="8" stroke="#000000" stroke-width="2"/>
  <line x1="48" y1="6" x2="52" y2="8" stroke="#000000" stroke-width="2"/>
</svg>
