<svg xmlns="http://www.w3.org/2000/svg" viewBox="0 0 64 64" fill="#000000">
  <!-- Car with wrench representing vehicle maintenance -->
  <!-- Car body -->
  <path d="M6 36 L12 36 L16 28 L48 28 L52 36 L58 36 L58 44 L6 44 Z" fill="none" stroke="#000000" stroke-width="2.5"/>
  <!-- Wheels -->
  <circle cx="18" cy="44" r="6" fill="none" stroke="#000000" stroke-width="2.5"/>
  <circle cx="18" cy="44" r="2"/>
  <circle cx="46" cy="44" r="6" fill="none" stroke="#000000" stroke-width="2.5"/>
  <circle cx="46" cy="44" r="2"/>
  <!-- Windows -->
  <path d="M20 28 L22 32 L32 32 L32 28 Z"/>
  <path d="M34 28 L34 32 L46 32 L44 28 Z"/>
  <!-- Wrench -->
  <path d="M26 8 L32 14 L28 18 L34 24 L30 28 L24 22 L20 26 L14 20 L18 16 L14 12 L18 8 L22 12 Z"/>
  <!-- Oil drop -->
  <path d="M50 10 Q50 6 52 6 Q54 6 54 10 Q54 16 52 18 Q50 16 50 10 Z"/>
</svg>
