<svg xmlns="http://www.w3.org/2000/svg" viewBox="0 0 64 64" fill="#000000">
  <!-- Playing cards with chips representing poker -->
  <!-- Back card -->
  <rect x="20" y="8" width="28" height="40" rx="3" fill="none" stroke="#000000" stroke-width="2" transform="rotate(-10 34 28)"/>
  <!-- Front card -->
  <rect x="16" y="10" width="28" height="40" rx="3" fill="none" stroke="#000000" stroke-width="3"/>
  <!-- Spade on card -->
  <path d="M30 22 C30 22 24 30 24 34 C24 38 28 38 30 36 L30 42 L34 42 L34 36 C36 38 40 38 40 34 C40 30 34 22 34 22 Q32 18 30 22 Z"/>
  <!-- Poker chips -->
  <ellipse cx="50" cy="52" rx="10" ry="6" fill="none" stroke="#000000" stroke-width="2.5"/>
  <ellipse cx="50" cy="48" rx="10" ry="6" fill="none" stroke="#000000" stroke-width="2.5"/>
  <ellipse cx="50" cy="44" rx="10" ry="6"/>
</svg>
