<svg xmlns="http://www.w3.org/2000/svg" viewBox="0 0 64 64" fill="#000000">
  <!-- Saw with wood representing woodworking -->
  <!-- Hand saw -->
  <path d="M8 20 L44 20 L48 24 L48 28 L8 28 Z" fill="none" stroke="#000000" stroke-width="2.5"/>
  <!-- Saw teeth -->
  <path d="M12 28 L14 32 L16 28 L18 32 L20 28 L22 32 L24 28 L26 32 L28 28 L30 32 L32 28 L34 32 L36 28 L38 32 L40 28 L42 32 L44 28" fill="none" stroke="#000000" stroke-width="1.5"/>
  <!-- Saw handle -->
  <path d="M44 20 Q52 16 56 20 Q60 24 56 32 Q52 36 48 28" fill="none" stroke="#000000" stroke-width="2.5"/>
  <circle cx="52" cy="24" r="3"/>
  <!-- Wood plank below -->
  <rect x="8" y="40" width="48" height="16" rx="2" fill="none" stroke="#000000" stroke-width="3"/>
  <!-- Wood grain lines -->
  <path d="M12 44 Q20 48 12 52" fill="none" stroke="#000000" stroke-width="1.5"/>
  <path d="M28 42 Q36 48 28 54" fill="none" stroke="#000000" stroke-width="1.5"/>
  <path d="M44 44 Q52 48 44 52" fill="none" stroke="#000000" stroke-width="1.5"/>
</svg>
