<svg xmlns="http://www.w3.org/2000/svg" viewBox="0 0 64 64" fill="#000000">
  <!-- Connected people representing professional network -->
  <!-- Central person -->
  <circle cx="32" cy="20" r="8"/>
  <path d="M22 42 Q22 32 32 32 Q42 32 42 42" fill="none" stroke="#000000" stroke-width="3"/>
  <!-- Left person -->
  <circle cx="12" cy="36" r="6"/>
  <path d="M6 52 Q6 46 12 46 Q18 46 18 52" fill="none" stroke="#000000" stroke-width="2.5"/>
  <!-- Right person -->
  <circle cx="52" cy="36" r="6"/>
  <path d="M46 52 Q46 46 52 46 Q58 46 58 52" fill="none" stroke="#000000" stroke-width="2.5"/>
  <!-- Connection lines -->
  <line x1="24" y1="24" x2="16" y2="32" stroke="#000000" stroke-width="2"/>
  <line x1="40" y1="24" x2="48" y2="32" stroke="#000000" stroke-width="2"/>
  <line x1="18" y1="44" x2="46" y2="44" stroke="#000000" stroke-width="2"/>
  <!-- Connection nodes -->
  <circle cx="20" cy="28" r="2"/>
  <circle cx="44" cy="28" r="2"/>
  <circle cx="32" cy="44" r="2"/>
</svg>
