<svg xmlns="http://www.w3.org/2000/svg" viewBox="0 0 64 64" fill="#000000">
  <!-- Giving hands with heart representing charitable giving -->
  <!-- Heart -->
  <path d="M32 24 C32 24 24 14 18 14 C12 14 8 20 8 26 C8 36 32 50 32 50 C32 50 56 36 56 26 C56 20 52 14 46 14 C40 14 32 24 32 24 Z"/>
  <!-- Cupped hands below -->
  <path d="M16 48 Q10 52 10 56 L22 56 Q20 52 18 50" fill="none" stroke="#000000" stroke-width="2.5" stroke-linecap="round"/>
  <path d="M48 48 Q54 52 54 56 L42 56 Q44 52 46 50" fill="none" stroke="#000000" stroke-width="2.5" stroke-linecap="round"/>
  <path d="M22 56 Q32 60 42 56" fill="none" stroke="#000000" stroke-width="2.5"/>
</svg>
