<svg xmlns="http://www.w3.org/2000/svg" viewBox="0 0 64 64" fill="#000000">
  <!-- Calculator with receipt representing tax deductions -->
  <!-- Calculator body -->
  <rect x="8" y="20" width="32" height="40" rx="3" fill="none" stroke="#000000" stroke-width="3"/>
  <!-- Calculator screen -->
  <rect x="12" y="24" width="24" height="10" rx="1"/>
  <!-- Calculator buttons -->
  <rect x="12" y="38" width="6" height="6" rx="1"/>
  <rect x="21" y="38" width="6" height="6" rx="1"/>
  <rect x="30" y="38" width="6" height="6" rx="1"/>
  <rect x="12" y="48" width="6" height="6" rx="1"/>
  <rect x="21" y="48" width="6" height="6" rx="1"/>
  <rect x="30" y="48" width="6" height="6" rx="1"/>
  <!-- Receipt coming out -->
  <path d="M44 10 L56 10 L56 50 Q54 52 52 50 Q50 52 48 50 Q46 52 44 50 Z" fill="none" stroke="#000000" stroke-width="2.5"/>
  <!-- Receipt text/items -->
  <line x1="46" y1="18" x2="54" y2="18" stroke="#000000" stroke-width="1.5"/>
  <line x1="46" y1="24" x2="54" y2="24" stroke="#000000" stroke-width="1.5"/>
  <line x1="46" y1="30" x2="54" y2="30" stroke="#000000" stroke-width="1.5"/>
  <line x1="46" y1="38" x2="54" y2="38" stroke="#000000" stroke-width="2"/>
</svg>
