<svg xmlns="http://www.w3.org/2000/svg" viewBox="0 0 64 64" fill="#000000">
  <!-- Trophy and scoreboard representing sports team following -->
  <!-- Trophy -->
  <path d="M24 10 L40 10 L40 20 Q40 32 32 36 Q24 32 24 20 Z" fill="none" stroke="#000000" stroke-width="3"/>
  <path d="M24 14 Q16 14 16 22 Q16 28 24 28" fill="none" stroke="#000000" stroke-width="2.5"/>
  <path d="M40 14 Q48 14 48 22 Q48 28 40 28" fill="none" stroke="#000000" stroke-width="2.5"/>
  <rect x="30" y="36" width="4" height="8"/>
  <rect x="26" y="44" width="12" height="4" rx="1"/>
  <!-- Scoreboard -->
  <rect x="10" y="52" width="44" height="10" rx="2" fill="none" stroke="#000000" stroke-width="2"/>
  <line x1="32" y1="52" x2="32" y2="62" stroke="#000000" stroke-width="2"/>
  <text x="20" y="60" font-family="Arial" font-size="8" font-weight="bold" text-anchor="middle">12</text>
  <text x="44" y="60" font-family="Arial" font-size="8" font-weight="bold" text-anchor="middle">10</text>
  <!-- Star on trophy -->
  <polygon points="32,18 33,21 36,21 34,23 35,26 32,24 29,26 30,23 28,21 31,21" fill="#000000"/>
</svg>
