<svg xmlns="http://www.w3.org/2000/svg" viewBox="0 0 64 64" fill="#000000">
  <!-- Brain with level-up arrow representing skill development -->
  <!-- Brain -->
  <path d="M32 8 Q18 8 14 18 Q10 28 14 36 Q10 40 12 48 Q14 54 24 54 L40 54 Q50 54 52 48 Q54 40 50 36 Q54 28 50 18 Q46 8 32 8" fill="none" stroke="#000000" stroke-width="3"/>
  <path d="M32 8 Q32 32 32 54" fill="none" stroke="#000000" stroke-width="2"/>
  <!-- Brain folds -->
  <path d="M18 22 Q24 26 18 30" fill="none" stroke="#000000" stroke-width="2"/>
  <path d="M46 22 Q40 26 46 30" fill="none" stroke="#000000" stroke-width="2"/>
  <path d="M20 40 Q26 44 22 48" fill="none" stroke="#000000" stroke-width="2"/>
  <path d="M44 40 Q38 44 42 48" fill="none" stroke="#000000" stroke-width="2"/>
  <!-- Level up arrow -->
  <path d="M52 42 L52 16 L48 20 M52 16 L56 20" fill="none" stroke="#000000" stroke-width="3" stroke-linecap="round" stroke-linejoin="round"/>
  <!-- Progress bars -->
  <rect x="6" y="58" width="52" height="4" rx="1" fill="none" stroke="#000000" stroke-width="1.5"/>
  <rect x="7" y="59" width="35" height="2" rx="0.5"/>
</svg>
