<svg xmlns="http://www.w3.org/2000/svg" viewBox="0 0 64 64" fill="#000000">
  <!-- Calendar base -->
  <rect x="8" y="14" width="48" height="44" rx="4" ry="4" fill="none" stroke="#000000" stroke-width="3"/>
  <!-- Calendar header/binding -->
  <rect x="8" y="14" width="48" height="12" rx="4" ry="4"/>
  <!-- Calendar rings -->
  <rect x="20" y="8" width="4" height="12" rx="2"/>
  <rect x="40" y="8" width="4" height="12" rx="2"/>
  <!-- Heart in center representing love/special dates -->
  <path d="M32 52 C32 52 18 40 18 33 C18 28 22 25 27 25 C30 25 32 27 32 27 C32 27 34 25 37 25 C42 25 46 28 46 33 C46 40 32 52 32 52 Z"/>
</svg>
