<svg xmlns="http://www.w3.org/2000/svg" viewBox="0 0 64 64" fill="#000000">
  <!-- Group of male figures with speech bubble representing men's group -->
  <!-- Person 1 -->
  <circle cx="16" cy="32" r="6"/>
  <path d="M10 52 Q10 42 16 42 Q22 42 22 52" fill="none" stroke="#000000" stroke-width="2.5"/>
  <!-- Person 2 (center) -->
  <circle cx="32" cy="28" r="7"/>
  <path d="M24 52 Q24 40 32 40 Q40 40 40 52" fill="none" stroke="#000000" stroke-width="2.5"/>
  <!-- Person 3 -->
  <circle cx="48" cy="32" r="6"/>
  <path d="M42 52 Q42 42 48 42 Q54 42 54 52" fill="none" stroke="#000000" stroke-width="2.5"/>
  <!-- Speech bubble -->
  <path d="M24 8 L48 8 Q52 8 52 12 L52 20 Q52 24 48 24 L32 24 L28 28 L28 24 L24 24 Q20 24 20 20 L20 12 Q20 8 24 8 Z" fill="#000000"/>
  <!-- Discussion dots -->
  <circle cx="28" cy="16" r="2" fill="#FFFFFF"/>
  <circle cx="36" cy="16" r="2" fill="#FFFFFF"/>
  <circle cx="44" cy="16" r="2" fill="#FFFFFF"/>
</svg>
