<svg xmlns="http://www.w3.org/2000/svg" viewBox="0 0 64 64" fill="#000000">
  <!-- Wrench and gear representing car modifications -->
  <!-- Large gear -->
  <circle cx="24" cy="32" r="10" fill="none" stroke="#000000" stroke-width="3"/>
  <circle cx="24" cy="32" r="4"/>
  <!-- Gear teeth -->
  <rect x="22" y="18" width="4" height="6"/>
  <rect x="22" y="40" width="4" height="6"/>
  <rect x="10" y="30" width="6" height="4"/>
  <rect x="32" y="30" width="6" height="4"/>
  <rect x="12" y="21" width="5" height="4" transform="rotate(-45 14.5 23)"/>
  <rect x="31" y="21" width="5" height="4" transform="rotate(45 33.5 23)"/>
  <rect x="12" y="39" width="5" height="4" transform="rotate(45 14.5 41)"/>
  <rect x="31" y="39" width="5" height="4" transform="rotate(-45 33.5 41)"/>
  <!-- Wrench -->
  <path d="M40 18 L52 30 L56 26 L56 18 L52 14 L44 14 L40 18 Z" fill="none" stroke="#000000" stroke-width="2.5"/>
  <rect x="34" y="32" width="6" height="22" rx="2" transform="rotate(-45 37 43)"/>
  <circle cx="54" cy="22" r="3"/>
</svg>
