<svg xmlns="http://www.w3.org/2000/svg" viewBox="0 0 64 64" fill="#000000">
  <!-- Document with trophy representing career achievements -->
  <!-- Document -->
  <path d="M14 6 L38 6 L48 16 L48 58 L14 58 Z" fill="none" stroke="#000000" stroke-width="3"/>
  <path d="M38 6 L38 16 L48 16" fill="none" stroke="#000000" stroke-width="2"/>
  <!-- Resume lines -->
  <line x1="20" y1="26" x2="42" y2="26" stroke="#000000" stroke-width="2"/>
  <line x1="20" y1="34" x2="42" y2="34" stroke="#000000" stroke-width="1.5"/>
  <line x1="20" y1="40" x2="42" y2="40" stroke="#000000" stroke-width="1.5"/>
  <line x1="20" y1="46" x2="36" y2="46" stroke="#000000" stroke-width="1.5"/>
  <!-- Trophy -->
  <path d="M52 20 L58 20 Q62 20 62 26 Q62 32 58 32 L58 34 Q58 36 56 36 L54 36 Q52 36 52 34 L52 32 Q48 32 48 26 Q48 20 52 20 Z"/>
  <rect x="52" y="36" width="6" height="4"/>
  <rect x="50" y="40" width="10" height="3" rx="1"/>
  <!-- Star on trophy -->
  <polygon points="55,26 56,28 58,28 56.5,29.5 57,32 55,30.5 53,32 53.5,29.5 52,28 54,28" fill="#FFFFFF"/>
</svg>
