<svg xmlns="http://www.w3.org/2000/svg" viewBox="0 0 64 64" fill="#000000">
  <!-- Brain with network nodes representing second brain -->
  <!-- Brain outline -->
  <path d="M32 8 Q18 8 14 18 Q10 28 14 36 Q10 40 12 48 Q14 56 24 56 L40 56 Q50 56 52 48 Q54 40 50 36 Q54 28 50 18 Q46 8 32 8" fill="none" stroke="#000000" stroke-width="3"/>
  <!-- Brain division -->
  <path d="M32 8 Q32 32 32 56" fill="none" stroke="#000000" stroke-width="2"/>
  <!-- Brain folds left -->
  <path d="M16 24 Q24 28 16 32" fill="none" stroke="#000000" stroke-width="2"/>
  <path d="M16 40 Q24 44 20 50" fill="none" stroke="#000000" stroke-width="2"/>
  <!-- Brain folds right -->
  <path d="M48 24 Q40 28 48 32" fill="none" stroke="#000000" stroke-width="2"/>
  <path d="M48 40 Q40 44 44 50" fill="none" stroke="#000000" stroke-width="2"/>
  <!-- Network nodes -->
  <circle cx="24" cy="28" r="3"/>
  <circle cx="40" cy="28" r="3"/>
  <circle cx="32" cy="40" r="3"/>
  <line x1="24" y1="28" x2="32" y2="40" stroke="#000000" stroke-width="1.5"/>
  <line x1="40" y1="28" x2="32" y2="40" stroke="#000000" stroke-width="1.5"/>
</svg>
