<svg xmlns="http://www.w3.org/2000/svg" viewBox="0 0 64 64" fill="#000000">
  <!-- Book with lightbulb representing lessons and wisdom -->
  <!-- Open book -->
  <path d="M8 12 Q16 8 32 12 Q48 8 56 12 L56 52 Q48 48 32 52 Q16 48 8 52 Z" fill="none" stroke="#000000" stroke-width="3"/>
  <path d="M32 12 L32 52" stroke="#000000" stroke-width="2"/>
  <!-- Page lines -->
  <line x1="14" y1="24" x2="26" y2="22" stroke="#000000" stroke-width="1.5"/>
  <line x1="14" y1="32" x2="26" y2="30" stroke="#000000" stroke-width="1.5"/>
  <line x1="38" y1="22" x2="50" y2="24" stroke="#000000" stroke-width="1.5"/>
  <line x1="38" y1="30" x2="50" y2="32" stroke="#000000" stroke-width="1.5"/>
  <!-- Lightbulb above -->
  <path d="M32 2 Q38 2 38 8 Q38 12 35 14 L35 16 L29 16 L29 14 Q26 12 26 8 Q26 2 32 2 Z" fill="#000000"/>
  <line x1="29" y1="17" x2="35" y2="17" stroke="#000000" stroke-width="1.5"/>
  <!-- Light rays -->
  <line x1="32" y1="-2" x2="32" y2="0" stroke="#000000" stroke-width="2" stroke-linecap="round"/>
  <line x1="42" y1="4" x2="44" y2="2" stroke="#000000" stroke-width="2" stroke-linecap="round"/>
  <line x1="22" y1="4" x2="20" y2="2" stroke="#000000" stroke-width="2" stroke-linecap="round"/>
</svg>
