<svg xmlns="http://www.w3.org/2000/svg" viewBox="0 0 64 64" fill="#000000">
  <!-- Beer mug with hops representing home brewing -->
  <!-- Mug body -->
  <path d="M12 16 L12 52 Q12 56 16 56 L40 56 Q44 56 44 52 L44 16 Z" fill="none" stroke="#000000" stroke-width="3"/>
  <!-- Mug handle -->
  <path d="M44 24 Q56 24 56 36 Q56 48 44 48" fill="none" stroke="#000000" stroke-width="3"/>
  <!-- Foam on top -->
  <path d="M12 16 Q16 12 22 16 Q28 12 34 16 Q40 12 44 16" fill="none" stroke="#000000" stroke-width="2.5"/>
  <ellipse cx="18" cy="12" rx="4" ry="3"/>
  <ellipse cx="28" cy="10" rx="5" ry="4"/>
  <ellipse cx="38" cy="12" rx="4" ry="3"/>
  <!-- Bubbles -->
  <circle cx="20" cy="36" r="2"/>
  <circle cx="32" cy="42" r="2.5"/>
  <circle cx="26" cy="48" r="1.5"/>
  <!-- Hop leaf -->
  <ellipse cx="8" cy="8" rx="4" ry="6" transform="rotate(-30 8 8)"/>
</svg>
