<svg xmlns="http://www.w3.org/2000/svg" viewBox="0 0 64 64" fill="#000000">
  <!-- Moon with stars and ZZZ representing sleep -->
  <!-- Moon -->
  <path d="M24 8 Q8 12 8 32 Q8 52 28 56 Q16 48 16 32 Q16 16 28 10 Q26 8 24 8 Z"/>
  <!-- Stars -->
  <polygon points="44,12 45,16 49,16 46,19 47,23 44,20 41,23 42,19 39,16 43,16"/>
  <polygon points="54,24 55,27 58,27 56,29 57,32 54,30 51,32 52,29 50,27 53,27"/>
  <polygon points="48,38 49,40 51,40 49.5,41.5 50,44 48,42.5 46,44 46.5,41.5 45,40 47,40"/>
  <!-- ZZZ -->
  <path d="M34 44 L42 44 L34 52 L42 52" fill="none" stroke="#000000" stroke-width="2.5" stroke-linecap="round" stroke-linejoin="round"/>
  <path d="M44 48 L50 48 L44 54 L50 54" fill="none" stroke="#000000" stroke-width="2" stroke-linecap="round" stroke-linejoin="round"/>
  <path d="M52 52 L56 52 L52 56 L56 56" fill="none" stroke="#000000" stroke-width="1.5" stroke-linecap="round" stroke-linejoin="round"/>
</svg>
