<svg xmlns="http://www.w3.org/2000/svg" viewBox="0 0 64 64" fill="#000000">
  <!-- Wine bottle and glass representing wine cellar -->
  <!-- Wine bottle -->
  <path d="M20 8 L28 8 L28 16 Q32 20 32 28 L32 52 Q32 56 28 56 L20 56 Q16 56 16 52 L16 28 Q16 20 20 16 Z" fill="none" stroke="#000000" stroke-width="2.5"/>
  <rect x="20" y="8" width="8" height="6"/>
  <!-- Wine level in bottle -->
  <path d="M18 36 L18 52 Q18 54 20 54 L28 54 Q30 54 30 52 L30 36 Q24 34 18 36 Z"/>
  <!-- Wine glass -->
  <ellipse cx="46" cy="20" rx="10" ry="6" fill="none" stroke="#000000" stroke-width="2.5"/>
  <path d="M36 20 Q36 30 40 34 L40 48" fill="none" stroke="#000000" stroke-width="2.5"/>
  <path d="M56 20 Q56 30 52 34 L52 48" fill="none" stroke="#000000" stroke-width="2.5"/>
  <path d="M40 48 L40 52 L52 52 L52 48" fill="none" stroke="#000000" stroke-width="2.5"/>
  <ellipse cx="46" cy="54" rx="8" ry="3" fill="none" stroke="#000000" stroke-width="2"/>
  <!-- Wine in glass -->
  <path d="M40 24 Q46 28 52 24 L52 20 Q46 18 40 20 Z"/>
</svg>
