<svg xmlns="http://www.w3.org/2000/svg" viewBox="0 0 64 64" fill="#000000">
  <!-- Heart with lightbulb representing date night ideas -->
  <!-- Heart shape -->
  <path d="M32 56 C32 56 8 38 8 22 C8 12 16 6 24 6 C28 6 32 10 32 10 C32 10 36 6 40 6 C48 6 56 12 56 22 C56 38 32 56 32 56 Z" fill="none" stroke="#000000" stroke-width="3"/>
  <!-- Lightbulb inside -->
  <path d="M32 18 Q40 18 40 28 Q40 34 36 38 L36 42 L28 42 L28 38 Q24 34 24 28 Q24 18 32 18 Z" fill="#000000"/>
  <line x1="28" y1="44" x2="36" y2="44" stroke="#000000" stroke-width="2"/>
  <line x1="29" y1="46" x2="35" y2="46" stroke="#000000" stroke-width="2"/>
  <!-- Light rays -->
  <line x1="32" y1="10" x2="32" y2="14" stroke="#000000" stroke-width="2" stroke-linecap="round"/>
  <line x1="42" y1="18" x2="46" y2="14" stroke="#000000" stroke-width="2" stroke-linecap="round"/>
  <line x1="22" y1="18" x2="18" y2="14" stroke="#000000" stroke-width="2" stroke-linecap="round"/>
</svg>
