<svg xmlns="http://www.w3.org/2000/svg" viewBox="0 0 64 64" fill="#000000">
  <!-- Calendar with family figures representing shared family calendar -->
  <!-- Calendar base -->
  <rect x="8" y="14" width="48" height="44" rx="3" fill="none" stroke="#000000" stroke-width="3"/>
  <rect x="8" y="14" width="48" height="12" rx="3" ry="3"/>
  <!-- Calendar rings -->
  <rect x="18" y="8" width="4" height="12" rx="2"/>
  <rect x="42" y="8" width="4" height="12" rx="2"/>
  <!-- Family silhouettes inside -->
  <circle cx="24" cy="38" r="4"/>
  <path d="M18 52 Q18 46 24 46 Q30 46 30 52"/>
  <circle cx="40" cy="38" r="4"/>
  <path d="M34 52 Q34 46 40 46 Q46 46 46 52"/>
  <!-- Small figure between (child) -->
  <circle cx="32" cy="42" r="3"/>
  <path d="M28 52 Q28 48 32 48 Q36 48 36 52"/>
</svg>
