<svg xmlns="http://www.w3.org/2000/svg" viewBox="0 0 64 64" fill="#000000">
  <!-- Game controller representing video game collection -->
  <!-- Controller body -->
  <path d="M16 24 Q8 24 8 36 Q8 48 16 48 L24 48 Q28 48 28 44 L36 44 Q36 48 40 48 L48 48 Q56 48 56 36 Q56 24 48 24 Z" fill="none" stroke="#000000" stroke-width="3"/>
  <!-- D-pad left side -->
  <rect x="14" y="32" width="12" height="4" rx="1"/>
  <rect x="18" y="28" width="4" height="12" rx="1"/>
  <!-- Buttons right side -->
  <circle cx="44" cy="32" r="3"/>
  <circle cx="50" cy="38" r="3"/>
  <circle cx="50" cy="32" r="3" fill="none" stroke="#000000" stroke-width="2"/>
  <circle cx="44" cy="38" r="3" fill="none" stroke="#000000" stroke-width="2"/>
  <!-- Center buttons -->
  <rect x="29" y="34" width="6" height="3" rx="1"/>
  <!-- Handles -->
  <path d="M16 48 Q12 52 12 56" stroke="#000000" stroke-width="3" fill="none" stroke-linecap="round"/>
  <path d="M48 48 Q52 52 52 56" stroke="#000000" stroke-width="3" fill="none" stroke-linecap="round"/>
  <!-- Collection indicator -->
  <rect x="24" y="8" width="16" height="12" rx="2" fill="none" stroke="#000000" stroke-width="2"/>
  <line x1="28" y1="12" x2="36" y2="12" stroke="#000000" stroke-width="1.5"/>
  <line x1="28" y1="16" x2="34" y2="16" stroke="#000000" stroke-width="1.5"/>
</svg>
