<svg xmlns="http://www.w3.org/2000/svg" viewBox="0 0 64 64" fill="#000000">
  <!-- Paw print with heart representing pet care -->
  <!-- Main pad -->
  <ellipse cx="32" cy="42" rx="14" ry="12"/>
  <!-- Toe pads -->
  <ellipse cx="18" cy="26" rx="7" ry="9" transform="rotate(-20 18 26)"/>
  <ellipse cx="46" cy="26" rx="7" ry="9" transform="rotate(20 46 26)"/>
  <ellipse cx="26" cy="18" rx="6" ry="8" transform="rotate(-10 26 18)"/>
  <ellipse cx="38" cy="18" rx="6" ry="8" transform="rotate(10 38 18)"/>
  <!-- Heart in main pad -->
  <path d="M32 48 C32 48 26 42 26 38 C26 35 28 34 30 34 C31 34 32 35 32 35 C32 35 33 34 34 34 C36 34 38 35 38 38 C38 42 32 48 32 48 Z" fill="#FFFFFF"/>
</svg>
