<svg xmlns="http://www.w3.org/2000/svg" viewBox="0 0 64 64" fill="#000000">
  <!-- House with wrench representing home maintenance -->
  <!-- House -->
  <polygon points="32,6 8,26 14,26 14,52 50,52 50,26 56,26" fill="none" stroke="#000000" stroke-width="3"/>
  <!-- Door -->
  <rect x="26" y="38" width="12" height="14" fill="none" stroke="#000000" stroke-width="2"/>
  <!-- Wrench -->
  <path d="M20 26 L28 34 L32 30 L24 22 Q22 20 24 18 Q28 16 30 18 L22 26" fill="#000000"/>
  <path d="M28 34 L36 42 L40 38 L32 30" fill="#000000"/>
  <path d="M36 42 L44 50 Q46 52 44 54 Q40 56 38 54 L46 46 L40 38" fill="#000000"/>
</svg>
