<svg xmlns="http://www.w3.org/2000/svg" viewBox="0 0 64 64" fill="#000000">
  <!-- Multiple money streams representing side hustle income -->
  <!-- Main wallet/income center -->
  <rect x="22" y="24" width="20" height="16" rx="2" fill="none" stroke="#000000" stroke-width="3"/>
  <ellipse cx="32" cy="32" rx="4" ry="3"/>
  <!-- Money stream arrows coming in -->
  <path d="M8 14 L20 26" stroke="#000000" stroke-width="2.5" stroke-linecap="round"/>
  <polygon points="20,26 14,22 16,28"/>
  <path d="M32 6 L32 22" stroke="#000000" stroke-width="2.5" stroke-linecap="round"/>
  <polygon points="32,22 28,16 36,16"/>
  <path d="M56 14 L44 26" stroke="#000000" stroke-width="2.5" stroke-linecap="round"/>
  <polygon points="44,26 48,28 50,22"/>
  <!-- Dollar signs on streams -->
  <text x="10" y="12" font-family="Arial" font-size="8" font-weight="bold">$</text>
  <text x="30" y="8" font-family="Arial" font-size="8" font-weight="bold">$</text>
  <text x="52" y="12" font-family="Arial" font-size="8" font-weight="bold">$</text>
  <!-- Growth chart below -->
  <path d="M12 52 L22 48 L32 50 L42 44 L52 46" fill="none" stroke="#000000" stroke-width="2"/>
  <rect x="18" y="52" width="4" height="6"/>
  <rect x="30" y="50" width="4" height="8"/>
  <rect x="42" y="46" width="4" height="12"/>
</svg>
