<svg xmlns="http://www.w3.org/2000/svg" viewBox="0 0 64 64" fill="#000000">
  <!-- Car with warning/help symbol representing roadside assistance -->
  <!-- Car body -->
  <path d="M8 38 L14 38 L18 30 L46 30 L50 38 L56 38 L56 46 L8 46 Z" fill="none" stroke="#000000" stroke-width="2.5"/>
  <!-- Wheels -->
  <circle cx="18" cy="46" r="6" fill="none" stroke="#000000" stroke-width="2.5"/>
  <circle cx="18" cy="46" r="2"/>
  <circle cx="46" cy="46" r="6" fill="none" stroke="#000000" stroke-width="2.5"/>
  <circle cx="46" cy="46" r="2"/>
  <!-- Windows -->
  <path d="M20 30 L22 34 L32 34 L32 30 Z"/>
  <path d="M34 30 L34 34 L44 34 L42 30 Z"/>
  <!-- Warning triangle -->
  <polygon points="32,6 22,22 42,22" fill="none" stroke="#000000" stroke-width="2.5"/>
  <text x="32" y="20" font-family="Arial" font-size="12" font-weight="bold" text-anchor="middle">!</text>
  <!-- Wrench -->
  <path d="M52 8 L58 14 L54 18 L48 12 Q50 10 52 8 Z"/>
  <rect x="46" y="18" width="4" height="8" rx="1" transform="rotate(-45 48 22)"/>
</svg>
