<svg xmlns="http://www.w3.org/2000/svg" viewBox="0 0 64 64" fill="#000000">
  <!-- Grill with flames representing BBQ cooking -->
  <!-- Grill grate -->
  <ellipse cx="32" cy="38" rx="22" ry="8" fill="none" stroke="#000000" stroke-width="3"/>
  <line x1="14" y1="38" x2="50" y2="38" stroke="#000000" stroke-width="2"/>
  <line x1="18" y1="34" x2="18" y2="42" stroke="#000000" stroke-width="2"/>
  <line x1="28" y1="34" x2="28" y2="42" stroke="#000000" stroke-width="2"/>
  <line x1="36" y1="34" x2="36" y2="42" stroke="#000000" stroke-width="2"/>
  <line x1="46" y1="34" x2="46" y2="42" stroke="#000000" stroke-width="2"/>
  <!-- Flames -->
  <path d="M22 28 Q24 20 22 14 Q26 18 26 24 Q28 18 26 12 Q30 18 28 26 Q28 26 22 28" fill="#000000"/>
  <path d="M36 26 Q38 18 36 12 Q40 16 40 22 Q42 16 40 10 Q44 16 42 24 Q42 24 36 26" fill="#000000"/>
  <!-- Legs -->
  <line x1="18" y1="46" x2="14" y2="56" stroke="#000000" stroke-width="3" stroke-linecap="round"/>
  <line x1="46" y1="46" x2="50" y2="56" stroke="#000000" stroke-width="3" stroke-linecap="round"/>
</svg>
