<svg xmlns="http://www.w3.org/2000/svg" viewBox="0 0 64 64" fill="#000000">
  <!-- Two hearts with target/flag representing couples goals -->
  <!-- Interlinked hearts -->
  <path d="M24 30 C24 30 16 22 12 22 C6 22 4 28 4 32 C4 42 24 52 24 52 C24 52 32 46 36 42" fill="none" stroke="#000000" stroke-width="3"/>
  <path d="M40 30 C40 30 48 22 52 22 C58 22 60 28 60 32 C60 42 40 52 40 52 C40 52 32 46 28 42" fill="none" stroke="#000000" stroke-width="3"/>
  <!-- Flag/goal at top -->
  <line x1="32" y1="8" x2="32" y2="28" stroke="#000000" stroke-width="2.5"/>
  <polygon points="32,8 48,14 32,20"/>
</svg>
