<svg xmlns="http://www.w3.org/2000/svg" viewBox="0 0 64 64" fill="#000000">
  <!-- Heart with pulse and dashboard representing health tracking -->
  <!-- Dashboard frame -->
  <rect x="6" y="6" width="52" height="52" rx="4" fill="none" stroke="#000000" stroke-width="3"/>
  <!-- Heart with pulse -->
  <path d="M32 48 C32 48 16 36 16 26 C16 20 20 16 26 16 C29 16 32 19 32 19 C32 19 35 16 38 16 C44 16 48 20 48 26 C48 36 32 48 32 48 Z" fill="none" stroke="#000000" stroke-width="2.5"/>
  <!-- Pulse line through heart -->
  <path d="M18 32 L26 32 L28 26 L32 38 L36 30 L38 32 L46 32" fill="none" stroke="#000000" stroke-width="2" stroke-linecap="round" stroke-linejoin="round"/>
  <!-- Dashboard indicators -->
  <circle cx="14" cy="14" r="4" fill="none" stroke="#000000" stroke-width="2"/>
  <circle cx="50" cy="14" r="4"/>
</svg>
