<svg xmlns="http://www.w3.org/2000/svg" viewBox="0 0 64 64" fill="#000000">
  <!-- Photo frames stacked representing photo album -->
  <!-- Back photo -->
  <rect x="16" y="8" width="40" height="32" rx="2" fill="none" stroke="#000000" stroke-width="2" transform="rotate(8 36 24)"/>
  <!-- Middle photo -->
  <rect x="12" y="12" width="40" height="32" rx="2" fill="none" stroke="#000000" stroke-width="2" transform="rotate(-5 32 28)"/>
  <!-- Front photo with image icon -->
  <rect x="8" y="18" width="40" height="32" rx="2" fill="none" stroke="#000000" stroke-width="3"/>
  <!-- Mountain/sun scene inside -->
  <circle cx="20" cy="30" r="4"/>
  <polygon points="16,46 28,32 36,42 40,38 44,46"/>
  <!-- Heart for family -->
  <path d="M50 50 C50 50 44 44 42 44 C39 44 38 46 38 48 C38 52 50 58 50 58 C50 58 62 52 62 48 C62 46 61 44 58 44 C56 44 50 50 50 50 Z" fill="#000000" transform="scale(0.5) translate(56 56)"/>
</svg>
