<svg xmlns="http://www.w3.org/2000/svg" viewBox="0 0 64 64" fill="#000000">
  <!-- Connected houses representing neighborhood network -->
  <!-- House 1 (left) -->
  <polygon points="16,24 8,32 10,32 10,42 22,42 22,32 24,32" fill="none" stroke="#000000" stroke-width="2"/>
  <!-- House 2 (right) -->
  <polygon points="48,24 40,32 42,32 42,42 54,42 54,32 56,32" fill="none" stroke="#000000" stroke-width="2"/>
  <!-- House 3 (center bottom) -->
  <polygon points="32,36 22,46 24,46 24,58 40,58 40,46 42,46" fill="none" stroke="#000000" stroke-width="2"/>
  <!-- Connection lines -->
  <line x1="22" y1="34" x2="28" y2="42" stroke="#000000" stroke-width="2"/>
  <line x1="42" y1="34" x2="36" y2="42" stroke="#000000" stroke-width="2"/>
  <line x1="24" y1="32" x2="40" y2="32" stroke="#000000" stroke-width="2"/>
  <!-- Connection dots -->
  <circle cx="16" cy="34" r="3"/>
  <circle cx="48" cy="34" r="3"/>
  <circle cx="32" cy="48" r="3"/>
</svg>
